<svg width="36" height="10.000000000000002" xmlns="http://www.w3.org/2000/svg">

 <g>
  <title>background</title>
  <rect fill="none" id="canvas_background" height="12" width="38" y="-1" x="-1"/>
 </g>
 <g>
  <title>Layer 1</title>
  <path id="svg_5" fill="#128CF9" d="m17.07924,1.668415l-1.98804,4.53965l-2.08197,-4.53965l-2.67685,0l0,6.27711l-2.75501,-6.27711l-2.36376,0l-2.88036,6.66859l1.75322,0.00685l0.54802,-1.43143l3.4124,0l0.6263,1.43143l3.28727,0l0,-5.21965l2.31679,5.21281c0,0 1.40882,0.01554 1.51829,0c0.10958,-0.01576 2.28548,-5.16584 2.28548,-5.16584l0,5.16584l1.58113,0l0,-6.66859l-2.58291,0l0,-0.00001zm-11.80431,3.83128l1.09442,-2.60684l1.09442,2.60684l-2.18884,0z"/>
  <path id="svg_6" fill="#128CF9" d="m33.59313,1.668415l-1.91412,0l-2.03631,2.20655l-1.96836,-2.20655l-6.52965,0l0,6.67543l6.44811,0l2.02272,-2.16111l1.98195,2.16111l1.94118,0l-2.89144,-3.33771l2.94592,-3.33772zm-6.89613,5.35598l-3.95043,0l0,-1.3575c0,0 3.46154,0 3.54308,0c0.08142,0 0,-1.38468 0,-1.38468l-3.54308,0l0,-1.24879l4.03175,0l1.83258,1.99554l-1.9139,1.99543z"/>
 </g>
</svg>