<svg width="48" height="10.000000000000002" xmlns="http://www.w3.org/2000/svg">

 <g>
  <title>background</title>
  <rect fill="none" id="canvas_background" height="12" width="50" y="-1" x="-1"/>
 </g>
 <g>
  <title>Layer 1</title>
  <g stroke="null" id="svg_13">
   <path stroke="null" id="svg_5" fill="#303030" d="m1.45101,8.567549c0,-2.433694 0,-4.840604 0,-7.255019c0.028213,-0.006963 0.053913,-0.019099 0.07963,-0.018918c0.804099,0.005895 1.610858,-0.026423 2.411557,0.028213c1.283257,0.087841 2.359434,0.609499 3.012123,1.764567c1.285573,2.274976 -0.117285,5.118939 -2.659003,5.420117c-0.639124,0.075524 -1.290581,0.046063 -1.936488,0.059989c-0.296908,0.006405 -0.59398,0.001051 -0.90782,0.001051zm1.427146,-1.246653c0.268515,0 0.521839,0.013384 0.77339,-0.002857c0.559511,-0.036063 1.08741,-0.169064 1.522853,-0.555405c0.999585,-0.887276 1.056175,-2.571868 0.122113,-3.53521c-0.674119,-0.69555 -1.533905,-0.710363 -2.41834,-0.689835c-0.000016,1.598361 -0.000016,3.18209 -0.000016,4.783308z"/>
   <path stroke="null" id="svg_6" fill="#303030" d="m41.70106,1.307357c0.026948,-0.006602 0.042845,-0.013745 0.058741,-0.013564c0.803918,0.005715 1.608542,-0.001971 2.411738,0.02552c0.281537,0.00964 0.569331,0.077479 0.839077,0.165681c0.915669,0.299749 1.424469,1.086884 1.363774,2.051113c-0.034453,0.550216 -0.174072,1.051166 -0.587362,1.445719c-0.254934,0.242979 -0.56094,0.388657 -0.894781,0.48489c-0.048379,0.013745 -0.096939,0.026423 -0.166567,0.045522c0.758922,1.015104 1.509453,2.019517 2.283729,3.055329c-0.346174,0 -0.652869,0 -0.959598,0c-0.213698,0 -0.427758,-0.007144 -0.640914,0.002677c-0.11694,0.005354 -0.18138,-0.03892 -0.244046,-0.133182c-0.591468,-0.889066 -1.188815,-1.774207 -1.782073,-2.662566c-0.060334,-0.090518 -0.11676,-0.167815 -0.261716,-0.109978c0,0.95298 0,1.916683 0,2.891438c-0.483987,0 -0.947101,0 -1.420002,0c0,-2.416385 0,-4.826875 0,-7.248598zm1.421612,3.335438c0.445247,0.000361 0.885141,0.028574 1.287363,-0.194238c0.370445,-0.205487 0.501656,-0.542728 0.497026,-0.947807c-0.004467,-0.390267 -0.152642,-0.701971 -0.51059,-0.884615c-0.402402,-0.205668 -0.835875,-0.177636 -1.273798,-0.162281c0,0.733402 0,1.451253 0,2.188942z"/>
   <path stroke="null" id="svg_7" fill="#303030" d="m36.748689,1.300559c1.335397,0 2.660251,0 3.998308,0c0,0.409185 0,0.81052 0,1.226667c-0.854251,0 -1.70709,0 -2.573297,0c0,0.539328 0,1.063663 0,1.60782c0.823017,0 1.641025,0 2.471908,0c0,0.419892 0,0.82034 0,1.237555c-0.825332,0 -1.643702,0 -2.473501,0c0,0.655201 0,1.293619 0,1.95291c0.859605,0 1.716188,0 2.580095,0c0,0.418282 0,0.815693 0,1.227554c-1.334855,0 -2.663108,0 -4.003497,0c-0.000016,-2.411886 -0.000016,-4.821653 -0.000016,-7.252506z"/>
   <path stroke="null" id="svg_8" fill="#303030" d="m14.806866,1.991642c-0.250467,0.327059 -0.492017,0.642162 -0.739282,0.965132c-0.271717,-0.289748 -0.558788,-0.523087 -0.948513,-0.572714c-0.390267,-0.049446 -0.755539,0.014106 -1.045468,0.304397c-0.312788,0.312952 -0.276364,0.779991 0.097842,1.012082c0.250828,0.155318 0.534697,0.25761 0.803557,0.383665c0.410975,0.193335 0.836039,0.361693 1.229705,0.585572c0.569151,0.323676 0.825694,0.847108 0.851575,1.496775c0.034273,0.859605 -0.225834,1.586931 -0.938529,2.106635c-0.537719,0.39204 -1.155971,0.501656 -1.808496,0.463459c-0.993328,-0.058199 -1.72279,-0.551645 -2.250705,-1.342524c0.292606,-0.312952 0.57861,-0.618778 0.853726,-0.912812c0.177816,0.205126 0.319028,0.412042 0.502018,0.570218c0.408479,0.353301 0.894419,0.468632 1.418935,0.338308c0.532907,-0.132114 0.853003,-0.649306 0.740891,-1.156152c-0.058199,-0.263867 -0.211202,-0.464888 -0.446857,-0.582896c-0.265657,-0.13282 -0.545766,-0.236377 -0.819798,-0.352234c-0.294576,-0.124609 -0.59646,-0.234587 -0.882464,-0.376702c-0.916031,-0.455248 -1.196681,-1.249872 -0.935671,-2.240704c0.218346,-0.828732 0.975117,-1.40877 1.910968,-1.491602c0.881758,-0.078546 1.66638,0.175485 2.349253,0.740349c0.016964,0.013909 0.030183,0.032302 0.057312,0.061746z"/>
   <path stroke="null" id="svg_9" fill="#303030" d="m29.126246,1.292709c0.497026,0 0.979403,-0.004105 1.46178,0.006602c0.044996,0.000887 0.105872,0.086231 0.129437,0.144431c0.501312,1.252203 0.997976,2.506542 1.496069,3.759977c0.122294,0.30796 0.245836,0.615378 0.380808,0.952635c0.034273,-0.076592 0.059809,-0.128534 0.081584,-0.181922c0.608251,-1.512491 1.217028,-3.024439 1.82206,-4.537833c0.04071,-0.101586 0.08587,-0.149784 0.205126,-0.147633c0.455248,0.00785 0.910677,0.003219 1.392529,0.003219c-0.02749,0.072306 -0.04677,0.127828 -0.069629,0.182103c-1.001359,2.377449 -2.003801,4.754389 -3.001416,7.133267c-0.047312,0.113196 -0.105149,0.151936 -0.223157,0.145137c-0.162643,-0.00964 -0.327059,0.006257 -0.488995,-0.006963c-0.057312,-0.004647 -0.140145,-0.051056 -0.160146,-0.099435c-1.008864,-2.423168 -2.011832,-4.848831 -3.01498,-7.274479c-0.00606,-0.014468 -0.004992,-0.032318 -0.011068,-0.079104z"/>
   <path stroke="null" id="svg_10" fill="#303030" d="m21.120877,3.224385c-0.22833,-0.171034 -0.423472,-0.3433 -0.642343,-0.476662c-0.844973,-0.514334 -1.930428,-0.394192 -2.692553,0.284214c-1.137759,1.012969 -1.084913,2.989625 0.104082,3.905294c0.891398,0.686436 2.134306,0.651457 2.985175,-0.084803c0.071583,-0.061763 0.14246,-0.124248 0.246017,-0.214585c0,0.108729 0,0.183876 0,0.25922c-0.000181,0.427577 -0.002315,0.855155 0.001971,1.282896c0.000887,0.090879 -0.02731,0.138716 -0.111932,0.179245c-1.736009,0.82837 -3.863533,0.263506 -4.896849,-1.333426c-1.426259,-2.204461 -0.297778,-5.217668 2.439228,-5.808594c0.846221,-0.182103 1.667267,-0.091404 2.444943,0.304741c0.05053,0.025881 0.116398,0.087841 0.117121,0.134068c0.008178,0.516141 0.00514,1.032807 0.00514,1.568391z"/>
   <path stroke="null" id="svg_11" fill="#FF6F00" d="m29.369586,4.935581c0.034814,2.081099 -1.677991,3.780159 -3.849066,3.776941c-2.185543,-0.003219 -3.863878,-1.630499 -3.851381,-3.820853c0.011955,-2.068602 1.712263,-3.699101 3.85299,-3.71232c2.180895,-0.013039 3.88209,1.700472 3.847456,3.756233z"/>
   <path stroke="null" id="svg_12" fill="#303030" d="m9.496202,8.558452c-0.472031,0 -0.930662,0 -1.401084,0c0,-2.419062 0,-4.82883 0,-7.252523c0.46543,0 0.927624,0 1.401084,0c0,2.414234 0,4.824182 0,7.252523z"/>
  </g>
 </g>
</svg>