<svg width="64" height="39" xmlns="http://www.w3.org/2000/svg">

 <g>
  <title>background</title>
  <rect fill="none" id="canvas_background" height="41" width="66" y="-1" x="-1"/>
 </g>
 <g>
  <title>Layer 1</title>
  <g id="svg_82">
   <path id="svg_4" fill="#FFB600" d="m63.401841,19.239356c0,10.4 -8.4,18.9 -18.9,18.9c-10.4,0 -18.9,-8.5 -18.9,-18.9l0,0c0,-10.4 8.4,-18.9 18.8,-18.9c10.6,0 19,8.5 19,18.9c0,0 0,0 0,0z"/>
   <path id="svg_7" fill="#F7981D" d="m44.501841,0.339356c10.4,0 18.9,8.5 18.9,18.9c0,0 0,0 0,0c0,10.4 -8.4,18.9 -18.9,18.9c-10.4,0 -18.9,-8.5 -18.9,-18.9"/>
   <path id="svg_10" fill="#FF8500" d="m44.501841,0.339356c10.4,0 18.9,8.5 18.9,18.9c0,0 0,0 0,0c0,10.4 -8.4,18.9 -18.9,18.9"/>
   <path id="svg_13" fill="#FF5050" d="m19.101841,0.339356c-10.3,0.1 -18.7,8.5 -18.7,18.9c0,10.4 8.4,18.9 18.9,18.9c4.9,0 9.3,-1.9 12.7,-4.9l0,0l0,0c0.7,-0.6 1.3,-1.3 1.9,-2l-3.9,0c-0.5,-0.6 -1,-1.3 -1.4,-1.9l6.7,0c0.4,-0.6 0.8,-1.3 1.1,-2l-8.9,0c-0.3,-0.6 -0.6,-1.3 -0.8,-2l10.4,0c0.6,-1.9 1,-3.9 1,-6c0,-1.4 -0.2,-2.7 -0.4,-4l-11.6,0c0.1,-0.7 0.3,-1.3 0.5,-2l10.4,0c-0.2,-0.7 -0.5,-1.4 -0.8,-2l-8.8,0c0.3,-0.7 0.7,-1.3 1.1,-2l6.7,0c-0.4,-0.7 -0.9,-1.4 -1.5,-2l-3.7,0c0.6,-0.7 1.2,-1.3 1.9,-1.9c-3.3,-3.1 -7.8,-4.9 -12.7,-4.9c0,-0.2 0,-0.2 -0.1,-0.2z"/>
   <path id="svg_16" fill="#E52836" d="m0.401841,19.239356c0,10.4 8.4,18.9 18.9,18.9c4.9,0 9.3,-1.9 12.7,-4.9l0,0l0,0c0.7,-0.6 1.3,-1.3 1.9,-2l-3.9,0c-0.5,-0.6 -1,-1.3 -1.4,-1.9l6.7,0c0.4,-0.6 0.8,-1.3 1.1,-2l-8.9,0c-0.3,-0.6 -0.6,-1.3 -0.8,-2l10.4,0c0.6,-1.9 1,-3.9 1,-6c0,-1.4 -0.2,-2.7 -0.4,-4l-11.6,0c0.1,-0.7 0.3,-1.3 0.5,-2l10.4,0c-0.2,-0.7 -0.5,-1.4 -0.8,-2l-8.8,0c0.3,-0.7 0.7,-1.3 1.1,-2l6.7,0c-0.4,-0.7 -0.9,-1.4 -1.5,-2l-3.7,0c0.6,-0.7 1.2,-1.3 1.9,-1.9c-3.3,-3.1 -7.8,-4.9 -12.7,-4.9c0,0 -0.1,0 -0.1,0"/>
   <path id="svg_19" fill="#CB2026" d="m19.301841,38.139356c4.9,0 9.3,-1.9 12.7,-4.9l0,0l0,0c0.7,-0.6 1.3,-1.3 1.9,-2l-3.9,0c-0.5,-0.6 -1,-1.3 -1.4,-1.9l6.7,0c0.4,-0.6 0.8,-1.3 1.1,-2l-8.9,0c-0.3,-0.6 -0.6,-1.3 -0.8,-2l10.4,0c0.6,-1.9 1,-3.9 1,-6c0,-1.4 -0.2,-2.7 -0.4,-4l-11.6,0c0.1,-0.7 0.3,-1.3 0.5,-2l10.4,0c-0.2,-0.7 -0.5,-1.4 -0.8,-2l-8.8,0c0.3,-0.7 0.7,-1.3 1.1,-2l6.7,0c-0.4,-0.7 -0.9,-1.4 -1.5,-2l-3.7,0c0.6,-0.7 1.2,-1.3 1.9,-1.9c-3.3,-3.1 -7.8,-4.9 -12.7,-4.9c0,0 -0.1,0 -0.1,0"/>
  </g>
 </g>
</svg>