<svg width="512" height="174" xmlns="http://www.w3.org/2000/svg">

 <g>
  <title>background</title>
  <rect fill="none" id="canvas_background" height="176" width="514" y="-1" x="-1"/>
 </g>
 <g>
  <title>Layer 1</title>
  <g stroke="null" id="svg_5">
   <path stroke="null" id="svg_2" fill-rule="evenodd" clip-rule="evenodd" fill="#005BAC" d="m208.316417,9.504282l-25.063674,154.032911l40.099742,0l25.066878,-154.032911l-40.102946,0zm-58.8027,0l-38.23265,105.942487l-4.522463,-22.813123l0.003204,0.007477l-0.996565,-5.113139c-4.62714,-9.972063 -15.343689,-28.924964 -35.579415,-45.099659c-5.982597,-4.78095 -12.01326,-8.861208 -17.843114,-12.346516l34.747341,133.455384l41.780978,0l63.802617,-154.032911l-43.159934,0zm156.503496,42.76259c0,-17.414794 39.054042,-15.177061 56.214621,-5.720905l5.721973,-33.082127c0,0 -17.660464,-6.716402 -36.068618,-6.716402c-19.901401,0 -67.158682,8.703124 -67.158682,50.991465c0,39.798529 55.465862,40.293073 55.465862,61.187835c0,20.894762 -49.747093,17.160579 -66.164253,3.979853l-5.966575,34.578577c0,0 17.905065,8.703124 45.269491,8.703124c27.361222,0 68.65086,-14.175155 68.65086,-52.733585c0,-40.047403 -55.964678,-43.777314 -55.964678,-61.187835zm163.637537,-42.76259l-32.241508,0c-14.887598,0 -18.512832,11.479195 -18.512832,11.479195l-59.80247,142.553716l41.797,0l8.361323,-22.878279l50.979715,0l4.702977,22.878279l36.820582,0l-32.104787,-154.032911zm-48.842387,99.545456l21.072071,-57.642711l11.854108,57.642711l-32.92618,0z"/>
   <path stroke="null" id="svg_4" fill-rule="evenodd" clip-rule="evenodd" fill="#F6AC1D" d="m93.817139,24.006285c0,0 -1.659874,-13.901714 -19.380153,-13.901714l-64.379408,0l-0.7541,2.612646c0,0 30.945866,6.308377 60.634543,29.942892c28.371673,22.588816 37.62702,50.746863 37.62702,50.746863l-13.747903,-69.400687z"/>
  </g>
 </g>
</svg>